<svg xmlns="http://www.w3.org/2000/svg" width="388.371" height="138.241" viewBox="0 0 388.371 138.241">
  <g id="Group_32" data-name="Group 32" transform="translate(-181 -377.22)">
    <path id="Path_33" data-name="Path 33" d="M384.4-361.711c-.129.225-23.346,86.728-24.472,91.2l-.225.9,7.2-.257c3.955-.129,7.2-.257,7.235-.257.032-.032,5.5-20.484,12.155-45.406,6.657-24.954,12.188-45.6,12.284-45.92.161-.515-.322-.547-6.914-.547A47.7,47.7,0,0,0,384.4-361.711Z" transform="translate(-64.084 762.66)" fill="#333"/>
    <path id="Path_34" data-name="Path 34" d="M453.8-361.614c-.1.225-5.627,20.9-12.348,45.92l-12.155,45.5,7.075.1c3.891.032,7.107.032,7.171,0,.1-.1,24.568-91.487,24.568-91.744,0-.1-3.184-.161-7.075-.161C455.669-362,453.9-361.9,453.8-361.614Z" transform="translate(-111.302 762.66)" fill="#333"/>
    <path id="Path_35" data-name="Path 35" d="M121.672-360.554l-8.361.161-12.123,45.342C94.5-290.13,89.032-269.453,89-269.163c0,.547.547.579,7.042.579h7.042l.675-2.508c.354-1.351,2.669-9.9,5.081-18.973l4.406-16.465h19.391l1.769-6.5,1.736-6.528-9.583-.1a93.165,93.165,0,0,1-9.583-.322c-.032-.129,1.608-6.3,3.569-13.763l3.634-13.538,9.615-.193c5.306-.129,9.711-.289,9.776-.354.289-.289,3.537-12.734,3.377-12.9C146.754-360.908,134.47-360.811,121.672-360.554Z" transform="translate(119.567 761.857)" fill="#333"/>
    <path id="Path_36" data-name="Path 36" d="M643.769-321.166c-4.727,5.724-4.824,5.917-2.765,5.981.579.032,1.318-1,4.116-5.628,1.865-3.119,3.344-5.724,3.312-5.788C648.368-326.633,646.278-324.189,643.769-321.166Z" transform="translate(-254.061 738.644)" fill="#333"/>
    <path id="Path_37" data-name="Path 37" d="M533.29-290.556c-6.271.933-10.933,4.213-13.377,9.454-1.222,2.637-13.506,48.59-13.7,51.323a7.728,7.728,0,0,0,2.09,6.5c1.254,1.222,3.923,2.6,4.309,2.219.1-.129,3.923-6.592,8.425-14.374l8.232-14.149-7.557-.1c-4.148-.032-7.557-.161-7.557-.225,0-.1,7.557-9.229,16.786-20.291,12.9-15.468,16.657-20.195,16.3-20.42C546.668-290.974,535.863-290.941,533.29-290.556Z" transform="translate(-163.455 714.401)" fill="#333"/>
    <path id="Path_38" data-name="Path 38" d="M255.36-289.617c-6.753.707-11.609,3.859-14.214,9.165-.836,1.7-4.856,15.693-4.856,16.882,0,.322,1.318.386,6.914.257,3.827-.1,7.01-.257,7.139-.354.1-.129.675-1.962,1.286-4.116,1.865-6.689,3.28-8.65,6.206-8.65,3.505,0,3.441,2.315-.482,15.95l-.482,1.64-6.5.193a54.322,54.322,0,0,0-8.554.707,14.794,14.794,0,0,0-9.969,7.46,89.462,89.462,0,0,0-3.409,11.062c-2.026,7.557-2.444,9.551-2.444,11.544.032,4.02,1.544,6.239,5.37,7.75,1.64.643,2.444.74,6.689.772,4.373,0,4.984-.064,6.431-.74a12.556,12.556,0,0,0,2.83-1.929l1.254-1.19-.225,1.222-.225,1.19h12.9l.482-1.7c3.344-11.737,15.05-56.018,15.178-57.4a7.849,7.849,0,0,0-5.113-8.682C268.287-289.81,261.437-290.26,255.36-289.617Zm-1.7,42.673c0,.643-2.347,8.972-2.894,10.258-1.351,3.087-2.862,4.309-5.4,4.309-1.383,0-1.865-.161-2.476-.8-1.061-1.029-1.061-2.6,0-6.592,1.19-4.406,2.7-6.624,4.824-7.171C248.7-247.17,253.655-247.2,253.655-246.944Z" transform="translate(26.622 713.752)" fill="#333"/>
    <path id="Path_39" data-name="Path 39" d="M560.754-273.75c-4.984,8.3-9.036,15.146-9.036,15.243s3.409.225,7.557.257l7.589.1L550.786-238.7c-8.811,10.708-15.918,19.584-15.789,19.745.482.482,14.406,0,16.561-.579,5.113-1.383,8.875-4.373,10.869-8.618.8-1.672,2.991-9.229,7.493-25.983,5.788-21.578,6.335-23.861,6.367-26.369.032-2.251-.1-2.959-.675-4.084a8.581,8.581,0,0,0-4.47-3.762l-1.351-.45Z" transform="translate(-183.008 712.999)" fill="#333"/>
    <path id="Path_30" data-name="Path 30" d="M43.447-434.572a12.722,12.722,0,0,0-8.972,6.592c-.418.868-7.621,29.006-16.046,62.514C1.418-297.743,2.318-301.86,4.344-299.319a9.22,9.22,0,0,0,2.38,1.929l1.383.74,172.073-.064,172.073-.1,1.833-.868a14.168,14.168,0,0,0,5.6-4.92c.933-1.64,31.964-123.58,31.964-125.7,0-3.119-2.444-5.724-5.949-6.3C383.22-435.022,45.891-434.958,43.447-434.572Zm342.764,4.309a3.067,3.067,0,0,1,1.254,1.318c.418,1.093-30.485,123.13-31.578,124.8a9.711,9.711,0,0,1-4.341,3.184c-1.737.611-341.67.675-342.892.032A3.787,3.787,0,0,1,7.4-302.149c-.45-.8.515-4.759,14.889-62.063,9-35.855,15.661-61.774,16.079-62.514a9.827,9.827,0,0,1,4.824-3.666c.579-.193,70.328-.322,171.526-.322C368.042-430.745,385.342-430.681,386.211-430.263Z" transform="translate(177.725 812.111)" fill="#333"/>
    <path id="Path_31" data-name="Path 31" d="M957.125-333.939,935.9-301.846l-1.8,6.753-1.8,6.753,12.831.1c7.042.032,12.8.161,12.8.225,0,.1-.868,3.73-1.929,8.1-1.061,4.341-1.929,8.039-1.929,8.168,0,.257,15.4.45,15.435.193.032-.032.932-3.762,2.058-8.264l1.994-8.2,2.8-.1c2.734-.1,2.8-.1,2.991-.965.128-.482.9-3.409,1.736-6.5a50.384,50.384,0,0,0,1.383-5.885,9.835,9.835,0,0,0-2.862-.225c-2.476,0-2.733-.064-2.573-.579.386-1.351,2.444-9.711,2.444-10,0-.257-2.54-.354-7.718-.354h-7.685l-.289,1.061c-.161.547-.772,3.023-1.383,5.435l-1.061,4.438h-8.875l2.348-3.634c1.318-1.962,10.387-15.693,20.162-30.453s18.265-27.623,18.876-28.556L994.942-366H978.349Z" transform="translate(-452.551 765.373)" fill="#333"/>
    <path id="Path_32" data-name="Path 32" d="M834.5-360.414c-4.148,1.7-7.75,3.248-7.975,3.409a71.886,71.886,0,0,0-2.766,9.1l-2.315,8.843-2.637.1c-2.122.064-2.637.193-2.766.643-.1.289-.547,1.994-1.029,3.762-.45,1.769-.933,3.377-1,3.6-.129.322.45.418,2.444.418a15.918,15.918,0,0,1,2.6.1c0,.032-2.926,10.933-6.464,24.182-6.882,25.629-7.364,27.945-6.4,30.871a8.208,8.208,0,0,0,4.277,4.373c1.544.708,2.187.772,8.1.868l6.431.129,1.7-6.4c.933-3.505,1.7-6.464,1.672-6.624a7.075,7.075,0,0,0-2.508-.225c-2.187,0-2.637-.1-3.151-.675-1.286-1.447-.9-3.473,5.081-25.694l5.6-20.741,3.859-.257a19.968,19.968,0,0,0,4.02-.482,40.816,40.816,0,0,0,1.19-4.02l.965-3.762h-3.827a30.312,30.312,0,0,1-3.827-.129c0-.064,1.447-5.563,3.216-12.252,1.8-6.657,3.216-12.155,3.151-12.22C842.094-363.533,838.653-362.151,834.5-360.414Z" transform="translate(-366.751 763.678)" fill="#333"/>
    <path id="Path_40" data-name="Path 40" d="M686.853-286.614c-.064.225-3.119,11.641-6.785,25.34-6.206,23.314-7.4,27.2-8.747,28.748-1.383,1.544-5.242,2.026-6.367.8-1.286-1.447-.9-3.312,6.239-29.874l6.721-24.922-7.075-.1c-3.891-.032-7.107-.032-7.171.032s-3.537,12.831-7.718,28.395c-6.367,23.668-7.621,28.716-7.75,31.1-.225,3.505.322,5.177,2.219,6.817,2.122,1.8,3.923,2.251,8.94,2.251,3.987,0,4.47-.064,6.11-.836a12.032,12.032,0,0,0,2.862-1.929l1.093-1.093-.225,1.222-.225,1.19,7.139-.064,7.139-.1,8.811-32.8c4.824-18.04,8.875-33.186,9-33.7l.193-.868H694.12C688.718-287,686.949-286.9,686.853-286.614Z" transform="translate(-259.777 711.778)" fill="#333"/>
    <path id="Path_41" data-name="Path 41" d="M507.162-66.762c-5.306,9.133-5.338,8.972.322,2.058,2.09-2.573,4.02-4.92,4.277-5.242.611-.675.45-.836-.932-1.061l-1.093-.193Z" transform="translate(-161.445 565.373)" fill="#333"/>
  </g>
</svg>
