<svg xmlns="http://www.w3.org/2000/svg" width="24" height="24" viewBox="0 0 24 24">
  <path id="ic_shopping_cart_24px" d="M8.2,21.2a2.4,2.4,0,1,0,2.4,2.4A2.4,2.4,0,0,0,8.2,21.2ZM1,2V4.4H3.4l4.32,9.108L6.1,16.448A2.32,2.32,0,0,0,5.8,17.6,2.407,2.407,0,0,0,8.2,20H22.6V17.6H8.7a.3.3,0,0,1-.3-.3l.036-.144L9.52,15.2h8.94a2.389,2.389,0,0,0,2.1-1.236l4.3-7.788A1.172,1.172,0,0,0,25,5.6a1.2,1.2,0,0,0-1.2-1.2H6.052L4.924,2H1ZM20.2,21.2a2.4,2.4,0,1,0,2.4,2.4A2.4,2.4,0,0,0,20.2,21.2Z" transform="translate(-1 -2)" fill="#404040"/>
</svg>
