<svg xmlns="http://www.w3.org/2000/svg" width="115.405" height="26.507" viewBox="0 0 115.405 26.507">
  <g id="Group_78" data-name="Group 78" transform="translate(-753.944 -546.643)">
    <path id="XMLID_2_" d="M80.6,191.2a13.189,13.189,0,0,0-13.1,12.194l7.032,2.93a3.672,3.672,0,0,1,2.1-.654h.2l3.133-4.576v-.068a4.959,4.959,0,1,1,4.959,5h-.113l-4.463,3.223v.18a3.718,3.718,0,0,1-7.371.721l-5.026-2.1A13.159,13.159,0,1,0,80.6,191.2Zm-4.869,20.106-1.623-.676A2.774,2.774,0,0,0,75.547,212a2.8,2.8,0,0,0,3.651-1.51,2.845,2.845,0,0,0-1.51-3.7,2.7,2.7,0,0,0-2.051-.023l1.668.7a2.091,2.091,0,0,1,1.1,2.7A2.013,2.013,0,0,1,75.727,211.306Zm12.487-10.278a3.291,3.291,0,1,0-3.291,3.336A3.334,3.334,0,0,0,88.214,201.027Zm-5.77,0a2.479,2.479,0,1,1,2.479,2.5A2.492,2.492,0,0,1,82.444,201.027Z" transform="translate(686.444 355.443)" fill="#585858"/>
    <path id="XMLID_7_" d="M403.859,242.62h-3.723v-9.664l-3.685,9.664H394.2l-3.647-9.664v9.664H386.6V226h4.663l4.061,11.281,4.1-11.281h4.437Z" transform="translate(465.489 324.971)" fill="#585858"/>
    <path id="XMLID_8_" d="M345.712,226.6h-2.858L336.8,243.634h3.535l1.015-2.783h5.527l1.015,2.783h3.873Zm-3.384,11.469,2.031-6.054,2.031,6.054Z" transform="translate(496.564 324.596)" fill="#585858"/>
    <path id="XMLID_11_" d="M309.593,242.62H298.5V226h11.093v2.858h-7.558v3.948h6.543v2.858h-6.543v4.1h7.558Z" transform="translate(520.462 324.971)" fill="#585858"/>
    <path id="XMLID_12_" d="M266.208,228.858h-4.061V242.62h-3.5V228.858H254.1V226h12.108Z" transform="translate(548.167 324.971)" fill="#585858"/>
    <path id="XMLID_13_" d="M225.608,237.42c0,3.422-3.008,5-6.054,5.039-3.008,0-5.039-.714-6.054-2.219l2.031-2.068a5.325,5.325,0,0,0,4.023,1.429c1.993,0,3.008-.714,3.008-2.068,0-1.278-1.015-1.8-2.031-2.03l-2.031-.263c-3.008-.414-4.55-1.955-4.55-4.7a4.848,4.848,0,0,1,1.5-3.685,6.124,6.124,0,0,1,4.023-1.354,7.662,7.662,0,0,1,5.527,1.918l-2.03,2.068a5.476,5.476,0,0,0-3.535-1.166c-1.5.113-2.519.639-2.519,2.106,0,1.166,1.015,1.73,2.031,1.8l2.031.3C223.577,232.87,225.608,234.6,225.608,237.42Z" transform="translate(573.5 325.283)" fill="#585858"/>
  </g>
</svg>
