<svg xmlns="http://www.w3.org/2000/svg" width="133.597" height="27.055" viewBox="0 0 133.597 27.055">
  <g id="Group_80" data-name="Group 80" transform="translate(-890.616 -545.75)">
    <g id="Group_79" data-name="Group 79" transform="translate(6)">
      <path id="Path_50" data-name="Path 50" d="M50.369,0c1.512.282,3,.685,4.478,1.1.846.246,1.69.5,2.529.771a18.266,18.266,0,0,1,3.822,1.6,7.537,7.537,0,0,1,1.486,1.138,5.669,5.669,0,0,1,1.15,1.615,8.964,8.964,0,0,1,.751,3.493,10.7,10.7,0,0,1-.122,2.333,5.485,5.485,0,0,1-.693,1.907,3.452,3.452,0,0,1-1.286,1.241,3.4,3.4,0,0,1-1.675.395,5.891,5.891,0,0,1-2.519-.638c-.014-2.621,0-5.243-.006-7.864a7.511,7.511,0,0,0-.069-1.421,1.666,1.666,0,0,0-.5-.974,1.452,1.452,0,0,0-.679-.318.7.7,0,0,0-.668.258,1.889,1.889,0,0,0-.335,1.142q0,10.526,0,21.052-2.832-.9-5.663-1.8Q50.366,12.52,50.369,0Z" transform="translate(847.252 545.75)" fill="#585858"/>
      <path id="Path_51" data-name="Path 51" d="M4.519,61.256c2.461-.871,4.92-1.751,7.382-2.619,0,.966,0,1.933,0,2.9a3.443,3.443,0,0,1-.01.393C9.947,62.62,8,63.322,6.06,64.016a2.082,2.082,0,0,0-.754.423.367.367,0,0,0-.123.377.671.671,0,0,0,.386.319,4.033,4.033,0,0,0,1.347.219A7.562,7.562,0,0,0,8.429,65.2a6.184,6.184,0,0,0,.978-.3c.831-.3,1.662-.6,2.494-.9.006.817,0,1.635,0,2.453,0,.163.007.328-.009.491a19.226,19.226,0,0,1-3.094.325,18.471,18.471,0,0,1-6.174-.93,5.558,5.558,0,0,1-1.843-.854,2.093,2.093,0,0,1-.7-.882,1.216,1.216,0,0,1,.036-.947,1.808,1.808,0,0,1,.641-.7,10.784,10.784,0,0,1,1.966-1.03C3.309,61.671,3.919,61.475,4.519,61.256Z" transform="translate(884.617 502.251)" fill="#585858"/>
      <path id="Path_52" data-name="Path 52" d="M81.045,64.233c.558-.065,1.12-.08,1.681-.1a18.511,18.511,0,0,1,5.468.791c.346.105.682.242,1.027.352a5.2,5.2,0,0,1,1.724.94,1.5,1.5,0,0,1,.555,1.049,1.309,1.309,0,0,1-.355.912,5.02,5.02,0,0,1-1.522,1.07,16.889,16.889,0,0,1-1.841.723Q82.123,72,76.465,74.033q0-1.585,0-3.169c.006-.042-.018-.116.042-.127q4.306-1.532,8.61-3.069a3.949,3.949,0,0,0,1.135-.513.426.426,0,0,0,.2-.456.682.682,0,0,0-.385-.312,3.953,3.953,0,0,0-1.354-.216,6.777,6.777,0,0,0-2.118.322c-2.044.716-4.085,1.442-6.13,2.156q0-1.7,0-3.4A21.1,21.1,0,0,1,81.045,64.233Z" transform="translate(827.893 498.174)" fill="#585858"/>
      <path id="Path_53" data-name="Path 53" d="M123.4,94.769a1.3,1.3,0,1,1-1.044.783A1.308,1.308,0,0,1,123.4,94.769Zm-.1.238a1.08,1.08,0,0,0-.338,1.957,1.078,1.078,0,0,0,1.621-1.194,1.1,1.1,0,0,0-.534-.666A1.077,1.077,0,0,0,123.3,95.008Z" transform="translate(793.924 475.454)" fill="#585858"/>
      <path id="Path_54" data-name="Path 54" d="M125.115,96.894c.233,0,.466,0,.7,0a.505.505,0,0,1,.37.133.458.458,0,0,1,.076.393c-.014.088-.092.14-.148.2.049.043.111.084.123.154a3.4,3.4,0,0,0,.042.407.323.323,0,0,1,.057.149c-.1,0-.193,0-.289,0-.065-.153-.017-.325-.057-.483a.145.145,0,0,0-.146-.1c-.157-.007-.315,0-.472,0,0,.2.006.392,0,.588-.082,0-.164,0-.247,0C125.112,97.853,125.115,97.374,125.115,96.894Zm.252.228q0,.2,0,.4c.141,0,.282,0,.423,0a.242.242,0,0,0,.2-.073.252.252,0,0,0,0-.253c-.036-.061-.113-.067-.176-.07C125.666,97.119,125.517,97.122,125.368,97.122Z" transform="translate(791.803 473.872)" fill="#585858"/>
    </g>
    <g id="Group_78" data-name="Group 78" transform="translate(3.449 24)">
      <path id="Path_60" data-name="Path 60" d="M180.893,44.048h4.088a.162.162,0,0,0,.1-.155V37.969c0-1.9,1.071-3.208,2.631-3.208h16.838c3.8,0,5.636-2.341,5.636-5.408a4.947,4.947,0,0,0-4.593-5.291H180.817c-.007.016-.019.028-.019.047v1.849a.124.124,0,0,0,.14.141h22.195c1.887,0,2.772,1.358,2.772,3.254s-.885,3.254-2.772,3.254h-17.56c-2.725,0-4.774,2.318-4.774,5.362v5.924A.147.147,0,0,0,180.893,44.048Z" transform="translate(753.382 502.146)" fill="#585858"/>
      <path id="Path_61" data-name="Path 61" d="M291.993,38.648v-9.3c0-1.9.885-3.254,2.773-3.254h11.643a.15.15,0,0,0,.14-.141V24.109a.125.125,0,0,0-.011-.047H292.3a4.948,4.948,0,0,0-4.593,5.291v9.295c0,1.9-.91,3.254-2.772,3.254h-12.3a.135.135,0,0,0-.14.14v1.85a.162.162,0,0,0,.1.155h13.96C290.2,43.952,291.993,41.629,291.993,38.648Z" transform="translate(686.815 502.146)" fill="#585858"/>
      <path id="Path_62" data-name="Path 62" d="M377.981,41.9h22.358a.106.106,0,0,1,.115.094v1.9a.135.135,0,0,0,.14.14h4.03a.133.133,0,0,0,.139-.14v-1.85a.152.152,0,0,1,.14-.14h4.005a.135.135,0,0,0,.14-.14V39.889a.135.135,0,0,0-.14-.14H404.9a.152.152,0,0,1-.14-.14V26.1c0-1.1-.41-1.8-1.1-2.037H402.5a4.479,4.479,0,0,0-1.182.515L377.236,39.444c-.932.585-1.258,1.24-1.025,1.732C376.4,41.6,376.931,41.9,377.981,41.9Zm3.493-2.482,18.654-11.543a.212.212,0,0,1,.351.187V39.609a.152.152,0,0,1-.14.14h-18.75c-.162,0-.233-.047-.255-.094C381.309,39.562,381.355,39.491,381.473,39.421Z" transform="translate(611.717 502.146)" fill="#585858"/>
    </g>
  </g>
</svg>
