<svg xmlns="http://www.w3.org/2000/svg" width="19.386" height="19.386" viewBox="0 0 19.386 19.386">
  <path id="ic_shopping_cart_24px" d="M6.816,17.508a1.939,1.939,0,1,0,1.939,1.939A1.936,1.936,0,0,0,6.816,17.508ZM1,2V3.939H2.939L6.428,11.3,5.119,13.67a1.874,1.874,0,0,0-.242.931,1.944,1.944,0,0,0,1.939,1.939H18.447V14.6H7.223a.24.24,0,0,1-.242-.242l.029-.116.872-1.58H15.1a1.929,1.929,0,0,0,1.7-1l3.47-6.291a.947.947,0,0,0,.116-.465.972.972,0,0,0-.969-.969H5.081L4.17,2H1ZM16.508,17.508a1.939,1.939,0,1,0,1.939,1.939A1.936,1.936,0,0,0,16.508,17.508Z" transform="translate(-1 -2)" fill="#333"/>
</svg>
