<svg id="XMLID_1_" xmlns="http://www.w3.org/2000/svg" width="101.59" height="26.507" viewBox="0 0 101.59 26.507">
  <path id="XMLID_2_" d="M80.6,191.2a13.189,13.189,0,0,0-13.1,12.194l7.032,2.93a3.672,3.672,0,0,1,2.1-.654h.2l3.133-4.576v-.068a4.959,4.959,0,1,1,4.959,5h-.113l-4.463,3.223v.18a3.718,3.718,0,0,1-7.371.721l-5.026-2.1A13.159,13.159,0,1,0,80.6,191.2Zm-4.869,20.106-1.623-.676A2.774,2.774,0,0,0,75.547,212a2.8,2.8,0,0,0,3.651-1.51,2.845,2.845,0,0,0-1.51-3.7,2.7,2.7,0,0,0-2.051-.023l1.668.7a2.091,2.091,0,0,1,1.1,2.7A2.013,2.013,0,0,1,75.727,211.306Zm12.487-10.278a3.291,3.291,0,1,0-3.291,3.336A3.334,3.334,0,0,0,88.214,201.027Zm-5.77,0a2.479,2.479,0,1,1,2.479,2.5A2.492,2.492,0,0,1,82.444,201.027Z" transform="translate(-67.5 -191.2)" fill="#585858"/>
  <path id="XMLID_7_" d="M400.584,239.466h-3.016v-7.83l-2.986,7.83h-1.828l-2.955-7.83v7.83h-3.2V226h3.778l3.29,9.14,3.321-9.14h3.595Z" transform="translate(-298.993 -220.052)" fill="#585858"/>
  <path id="XMLID_8_" d="M344.02,226.6H341.7l-4.9,13.8h2.864l.823-2.254h4.478l.823,2.254h3.138Zm-2.742,9.292,1.645-4.9,1.645,4.9Z" transform="translate(-264.365 -220.469)" fill="#585858"/>
  <path id="XMLID_11_" d="M307.487,239.466H298.5V226h8.987v2.315h-6.124v3.2h5.3v2.315h-5.3v3.321h6.124Z" transform="translate(-237.733 -220.052)" fill="#585858"/>
  <path id="XMLID_12_" d="M263.91,228.315h-3.29v11.15h-2.833v-11.15H254.1V226h9.81Z" transform="translate(-206.86 -220.052)" fill="#585858"/>
  <path id="XMLID_13_" d="M223.31,235.158c0,2.772-2.437,4.052-4.9,4.082-2.437,0-4.082-.579-4.9-1.8l1.645-1.676a4.314,4.314,0,0,0,3.26,1.158c1.615,0,2.437-.579,2.437-1.676,0-1.036-.823-1.462-1.645-1.645l-1.645-.213c-2.437-.335-3.686-1.584-3.686-3.808a3.928,3.928,0,0,1,1.219-2.986,4.962,4.962,0,0,1,3.26-1.1,6.208,6.208,0,0,1,4.478,1.554l-1.645,1.676a4.437,4.437,0,0,0-2.864-.944c-1.219.091-2.041.518-2.041,1.706,0,.944.823,1.4,1.645,1.462l1.645.244A3.952,3.952,0,0,1,223.31,235.158Z" transform="translate(-178.629 -219.704)" fill="#585858"/>
</svg>
