<svg xmlns="http://www.w3.org/2000/svg" viewBox="0 0 475 475.3"><title>Asset 2</title><g id="Layer_2" data-name="Layer 2"><g id="Layer_1-2" data-name="Layer 1"><path d="M475,211v51a38,38,0,0,0-.81,4.31c-.64,8.3-.94,8.62-9.35,9.71-10.07,1.32-20.13,2.73-30.2,4-3.8.48-6.12,2.11-7.63,5.92-6.35,16.07-12.77,32.13-19.81,47.91-2.38,5.32-2.27,9.22,1.43,13.59,6.45,7.63,12.71,15.42,18.87,23.28,4,5.14,4,6.71-.34,11.16q-22.05,22.45-44.34,44.67c-4.63,4.62-5.62,4.5-11,.29C364.52,421.07,357,415.5,350,409.34c-5.44-4.8-10.45-5-16.72-1.7-14.57,7.68-29.45,14.74-45.51,18.87-4.27,1.09-6.38,3.64-6.87,8-1.23,10.91-2.81,21.78-4,32.7-.57,5.31-3.4,7.61-8.42,7.66-20.64.18-41.29.39-61.94.41-5.32,0-7.74-2.6-8.29-7.85-1-9.77-2.33-19.52-3-29.31-.39-6.26-3.41-9.25-9.06-11.44q-23-9-45.56-19c-5.29-2.35-9.38-2.07-13.73,1.59-7.53,6.31-15.22,12.42-22.9,18.54-5.39,4.31-7.31,4.21-12.48-.54-3.19-2.92-6.34-5.9-9.39-9C71.09,407.13,59.85,396,48.93,384.57c-5.21-5.46-5-7-.46-12.79C54.25,364.46,60,357.1,66,350c3.79-4.54,4.64-8.78,2.09-14.53C61.18,320,54.88,304.24,48.54,288.54c-1.94-4.79-5.27-6.93-10.24-7.31-9.13-.69-18.24-1.61-27.37-2.34C5.64,278.46,1.17,277.06,0,271V205c1.27-4.47,4.89-5.52,8.83-5.94,9.93-1.06,19.86-2.17,29.81-3,5.33-.45,8.16-3,10.07-8,5.87-15.36,11.81-30.72,18.59-45.68,2.75-6.05,2.44-10.19-1.78-15.13-6.48-7.58-12.46-15.62-18.45-23.61-2.22-3-4.08-6.24-.5-9.78C61.37,79.21,76,64.43,90.93,49.89c5.81-5.66,6.27-5.49,12.6-.76q13,9.7,25.85,19.61c3,2.33,5.9,2.5,9.2.62a230.23,230.23,0,0,1,49-20.91c4-1.17,6-3.39,6.45-7.72,1.06-10.76,2.24-21.53,4-32.2.51-3,3.25-5.7,5-8.53h68c4,1.54,5,5,5.46,8.76C277.71,19,279,29.24,280.18,39.48c.57,4.87,2.63,7.72,7.76,9.57,15,5.39,29.85,11.2,44.34,17.77,6.16,2.79,10.91,2.94,16-1.25q11.16-9.21,22.44-18.29c5-4,7.36-4.3,11.74,0q22.13,21.63,43.84,43.68c5,5.11,4.79,6.78.38,12.4q-9.39,12-18.92,23.85c-3.2,4-3.61,7.83-.95,12.36a113.26,113.26,0,0,1,7.39,14.68c4.18,10.31,8.05,20.75,11.84,31.21,2,5.62,5.3,8.59,11.69,8.75,8.14.19,16.26,1.24,24.36,2.19,11,1.29,10.94,1.4,12.32,12.27A19.23,19.23,0,0,0,475,211Zm-256.75-7.11,9.86.7v92.7h21.43V292q0-46.92,0-93.85c0-13.78,0-13.78-13.66-13.78H218.25Zm85.94.58v92.72H325.5V184.76H294.43V204Zm-151.06-.2V297.4h20.74V184.74H142.41v19.53Z"/></g></g></svg>