<svg id="XBOX_logo" xmlns="http://www.w3.org/2000/svg" width="105.142" height="26.088" viewBox="0 0 105.142 26.088">
  <path id="path6965" d="M594.946,66.158l-7.531-10.147L594.3,46.8h-2.584l-5.6,7.515-5.6-7.515H577.95l6.865,9.227L577.3,66.174h2.584l6.231-8.4,6.247,8.4h2.584" transform="translate(-489.804 -42.704)" fill="#585858"/>
  <path id="path6967" d="M271.346,66.158l-7.515-10.147L270.7,46.8h-2.568l-5.6,7.515-5.6-7.515H254.35l6.881,9.227L253.7,66.174h2.584l6.247-8.4,6.231,8.4h2.584" transform="translate(-217.51 -42.737)" fill="#585858"/>
  <path id="path6969" d="M358.034,64.129h-5.755V57.09h5.755c2.188,0,4.788.587,4.788,3.361C362.822,63.653,359.809,64.129,358.034,64.129Zm-5.755-15.316h5.755c1.554,0,4.17.381,4.17,3.076,0,2.029-1.522,3.25-4.17,3.25h-5.755Zm11.035,7.927a5.106,5.106,0,0,0-1.284-.809,4.387,4.387,0,0,0,2.346-3.869c0-1.237-.46-5.264-6.358-5.264h-7.943v8.355h-2.648c-.349.444-1.126,1.506-1.427,1.934h4.075v9.069h7.943c4.312,0,6.992-2.172,6.992-5.66a4.66,4.66,0,0,0-1.7-3.758" transform="translate(-295.176 -42.704)" fill="#585858"/>
  <path id="path6971" d="M481.454,62.185c-4.2,0-7.135-3.314-7.135-8.07s2.933-8.07,7.135-8.07c4.186,0,7.1,3.314,7.1,8.07C488.557,58.856,485.64,62.185,481.454,62.185Zm0-18.185c-5.517,0-9.354,4.154-9.354,10.115s3.837,10.115,9.354,10.115c5.486,0,9.322-4.154,9.322-10.115S486.94,44,481.454,44" transform="translate(-401.283 -40.348)" fill="#585858"/>
  <g id="g4146" transform="translate(0 0)">
    <path id="path4148" d="M12.737,22.871a12.968,12.968,0,0,1-5.782-2.054c-1.463-.956-1.793-1.347-1.793-2.132,0-1.573,1.729-4.331,4.684-7.471,1.68-1.784,4.018-3.876,4.27-3.821.492.11,4.424,3.951,5.9,5.756,2.329,2.862,3.4,5.2,2.856,6.246-.414.794-2.978,2.344-4.861,2.937A14.209,14.209,0,0,1,12.737,22.871Zm-9.548-5.82A13.579,13.579,0,0,1,1.063,10.69a10.139,10.139,0,0,1,.223-3.181,13.032,13.032,0,0,1,3.166-6.44c.655-.681.713-.7,1.509-.429a11.01,11.01,0,0,1,3.6,2.491l.936.846-.51.629a40.45,40.45,0,0,0-5.814,9.6,6.222,6.222,0,0,0-.5,3.363C3.823,17.961,3.687,17.816,3.189,17.051Zm21.321.316a6.348,6.348,0,0,0-.388-2.749,39.743,39.743,0,0,0-5.707-9.707l-.744-.936.805-.742A16.809,16.809,0,0,1,21.045,1.2a4.936,4.936,0,0,1,1.892-.73c.235,0,1.063.86,1.732,1.8a13.629,13.629,0,0,1,2.184,5.058,16.907,16.907,0,0,1,.041,4.91,15.6,15.6,0,0,1-.976,3.088,16.6,16.6,0,0,1-1.335,2.289c-.162.2-.162.2-.072-.246ZM12.951.021A16.247,16.247,0,0,0,9.246-1.292a6.933,6.933,0,0,0-1.237-.07c-.768.038-.733,0,.5-.582a12.636,12.636,0,0,1,3.036-1.011,15.536,15.536,0,0,1,5.035-.006,14.081,14.081,0,0,1,3.934,1.466l.272.168-.626-.032A11.36,11.36,0,0,0,15.15.032a9.754,9.754,0,0,1-1.136.507C13.98.533,13.5.3,12.951.021Z" transform="translate(-1.013 3.163)" fill="#585858"/>
  </g>
</svg>
